{"title":"Bringing Up Bates - s02e14 - Hello Dollywood - HDTV 1080","uid":12349552,"size":1615761560,"categoryP":"video","categoryS":"hd___tv_shows","magnet":"?xt=urn:btih:8f2a60d4086e088aed3aee39106610c87d740f57&amp;dn=Bringing+Up+Bates+-+s02e14+-+Hello+Dollywood+-+HDTV+1080&amp;tr=udp%3A%2F%2Ftracker.openbittorrent.com%3A80&amp;tr=udp%3A%2F%2Fopen.demonii.com%3A1337&amp;tr=udp%3A%2F%2Ftracker.coppersurfer.tk%3A6969&amp;tr=udp%3A%2F%2Fexodus.desync.com%3A6969","seeders":1,"leechers":0,"uploader":null,"files":15,"time":1441401697,"description":"General\n Complete name : Bringing Up Bates - s02e14 - Hello DollywoodBringing Up Bates - s02e14 - Hello Dollywood - Season Finale.mp4\n Format : MPEG-4\n Format profile : Base Media / Version 2\n Codec ID : mp42\n File size : 1.25 GiB\n Duration : 43mn 29s\n Overall bit rate mode : Variable\n Overall bit rate : 4 126 Kbps\n Encoded date : UTC 2015-09-04 08:21:32\n Tagged date : UTC 2015-09-04 12:30:12\n\n Video\n ID : 1\n Format : AVC\n Format/Info : Advanced Video Codec\n Format profile : High@L4\n Format settings, CABAC : Yes\n Format settings, ReFrames : 4 frames\n Codec ID : avc1\n Codec ID/Info : Advanced Video Coding\n Duration : 43mn 29s\n Bit rate : 3 900 Kbps\n Width : 1 920 pixels\n Height : 1 080 pixels\n Display aspect ratio : 16:9\n Frame rate mode : Variable\n Frame rate : 29.970 fps\n Minimum frame rate : 9.991 fps\n Maximum frame rate : 29.970 fps\n Color space : YUV\n Chroma subsampling : 4:2:0\n Bit depth : 8 bits\n Scan type : Progressive\n Bits/(Pixel*Frame) : 0.063\n Stream size : 1.18 GiB (95%)\n Writing library : x264 core 146 r2538 121396c\n Encoding settings : cabac=1 / ref=3 / deblock=1:0:0 / analyse=0x3:0x133 / me=hex / subme=7 / psy=1 / psy_rd=1.00:0.00 / mixed_ref=1 / me_range=16 / chroma_me=1 / trellis=1 / 8x8dct=1 / cqm=0 / deadzone=21,11 / fast_pskip=1 / chroma_qp_offset=-2 / threads=3 / lookahead_threads=1 / sliced_threads=0 / nr=0 / decimate=1 / interlaced=0 / bluray_compat=0 / constrained_intra=0 / bframes=3 / b_pyramid=2 / b_adapt=1 / b_bias=0 / direct=1 / weightb=1 / open_gop=0 / weightp=2 / keyint=250 / keyint_min=25 / scenecut=40 / intra_refresh=0 / rc_lookahead=40 / rc=2pass / mbtree=1 / bitrate=3900 / ratetol=1.0 / qcomp=0.60 / qpmin=10 / qpmax=51 / qpstep=4 / cplxblur=20.0 / qblur=0.5 / ip_ratio=1.40 / aq=1:1.00\n Encoded date : UTC 2015-09-04 08:21:32\n Tagged date : UTC 2015-09-04 12:30:12\n\n Audio\n ID : 2\n Format : AAC\n Format/Info : Advanced Audio Codec\n Format profile : LC\n Codec ID : 40\n Duration : 43mn 29s\n Duration_FirstFrame : 147ms\n Bit rate mode : Variable\n Bit rate : 221 Kbps\n Channel(s) : 2 channels\n Channel positions : Front: L R\n Sampling rate : 48.0 KHz\n Compression mode : Lossy\n Stream size : 68.9 MiB (5%)\n Title : Stereo\n Language : English\n Encoded date : UTC 2015-09-04 08:25:17\n Tagged date : UTC 2015-09-04 12:30:11","torrent":{"xt":"urn:btih:8f2a60d4086e088aed3aee39106610c87d740f57","amp;dn":"Bringing+Up+Bates+-+s02e14+-+Hello+Dollywood+-+HDTV+1080","amp;tr":["udp%3A%2F%2Ftracker.openbittorrent.com%3A80","udp%3A%2F%2Fopen.demonii.com%3A1337","udp%3A%2F%2Ftracker.coppersurfer.tk%3A6969","udp%3A%2F%2Fexodus.desync.com%3A6969"],"infoHash":"8f2a60d4086e088aed3aee39106610c87d740f57","infoHashBuffer":{"type":"Buffer","data":[143,42,96,212,8,110,8,138,237,58,238,57,16,102,16,200,125,116,15,87]},"announce":[],"urlList":[]}}